# xmcd CD database file
#
# Track frame offsets:
#	171
#	17168
#	38169
#	55324
#	75878
#	99928
#	123148
#	140708
#	160853
#	178257
#	197691
#	214166
#
# Disc length: 3124 seconds
#
# Revision: 3
# Processed by: cddbd v1.5.2PL0 Copyright (c) Steve Scherf et al.
# Submitted via: CDex 1.50
#
DISCID=9b0c320c
DTITLE=Jamie Cullum - Momentum
DYEAR=2013
DGENRE=Jazz
TTITLE0=The Same Things
TTITLE1=Edge Of Something
TTITLE2=Everything You Didn't Do
TTITLE3=When I Get Famous
TTITLE4=Feat.Roots Manuva_Love For $ale
TTITLE5=Pure Imagination
TTITLE6=Anyway
TTITLE7=Sad, Sad World
TTITLE8=Take Me Out (Of Myself)
TTITLE9=Save Your Soul
TTITLE10=Get A Hold Of Yourself
TTITLE11=You're Not The Only One
EXTD=YEAR: 2013
EXTT0=
EXTT1=
EXTT2=
EXTT3=
EXTT4=
EXTT5=
EXTT6=
EXTT7=
EXTT8=
EXTT9=
EXTT10=
EXTT11=
PLAYORDER=
